<svg xmlns="http://www.w3.org/2000/svg" xmlns:xlink="http://www.w3.org/1999/xlink" width="500" zoomAndPan="magnify" viewBox="0 0 375 374.999991" height="500" preserveAspectRatio="xMidYMid meet" version="1.0"><defs><filter x="0%" y="0%" width="100%" height="100%" id="7cb8df8564"><feColorMatrix values="0 0 0 0 1 0 0 0 0 1 0 0 0 0 1 0 0 0 1 0" color-interpolation-filters="sRGB"/></filter><clipPath id="32046b1de0"><path d="M 47 82 L 337.496094 82 L 337.496094 373.304688 L 47 373.304688 Z M 47 82 " clip-rule="nonzero"/></clipPath><mask id="62fbbbd972"><g filter="url(#7cb8df8564)"><rect x="-37.5" width="450" fill="#000000" y="-37.499999" height="449.999989" fill-opacity="0.698"/></g></mask><clipPath id="9487b623d6"><path d="M 0.519531 1 L 290.496094 1 L 290.496094 291.304688 L 0.519531 291.304688 Z M 0.519531 1 " clip-rule="nonzero"/></clipPath><clipPath id="0068cf367f"><rect x="0" width="291" y="0" height="292"/></clipPath><clipPath id="91745433a6"><path d="M 46 2.054688 L 337.496094 2.054688 L 337.496094 293 L 46 293 Z M 46 2.054688 " clip-rule="nonzero"/></clipPath><mask id="b129b193a4"><g filter="url(#7cb8df8564)"><rect x="-37.5" width="450" fill="#000000" y="-37.499999" height="449.999989" fill-opacity="0.698"/></g></mask><clipPath id="274a46cf3c"><path d="M 1 0.0546875 L 291.496094 0.0546875 L 291.496094 290 L 1 290 Z M 1 0.0546875 " clip-rule="nonzero"/></clipPath><clipPath id="25452dd156"><rect x="0" width="292" y="0" height="291"/></clipPath></defs><g clip-path="url(#32046b1de0)"><g mask="url(#62fbbbd972)"><g transform="matrix(1, 0, 0, 1, 47, 82)"><g clip-path="url(#0068cf367f)"><g clip-path="url(#9487b623d6)"><path fill="#085fce" d="M 186.125 1.628906 C 214.023438 1.628906 240.25 12.484375 259.972656 32.1875 C 280.332031 52.527344 290.515625 79.246094 290.515625 105.964844 C 290.515625 132.683594 280.332031 159.398438 259.972656 179.738281 L 178.910156 260.722656 C 159.1875 280.429688 132.960938 291.28125 105.0625 291.28125 C 77.167969 291.28125 50.941406 280.429688 31.21875 260.722656 C -9.503906 220.042969 -9.503906 153.851562 31.21875 113.171875 L 112.28125 32.1875 C 132.003906 12.480469 158.230469 1.628906 186.125 1.628906 Z M 186.125 1.628906 " fill-opacity="1" fill-rule="nonzero"/></g></g></g></g></g><g clip-path="url(#91745433a6)"><g mask="url(#b129b193a4)"><g transform="matrix(1, 0, 0, 1, 46, 2)"><g clip-path="url(#25452dd156)"><g clip-path="url(#274a46cf3c)"><path fill="#3de2ff" d="M 106.0625 0.0820312 C 133.960938 0.0820312 160.1875 10.933594 179.910156 30.640625 L 260.972656 111.625 C 281.332031 131.964844 291.515625 158.679688 291.515625 185.398438 C 291.515625 212.117188 281.332031 238.835938 260.972656 259.175781 C 241.25 278.878906 215.023438 289.734375 187.125 289.734375 C 159.230469 289.734375 133.003906 278.878906 113.28125 259.175781 L 32.214844 178.191406 C -8.503906 137.511719 -8.503906 71.320312 32.214844 30.640625 C 51.941406 10.933594 78.167969 0.0820312 106.0625 0.0820312 Z M 106.0625 0.0820312 " fill-opacity="1" fill-rule="nonzero"/></g></g></g></g></g></svg>